<svg version="1.1" id="Uploaded to svgrepo.com" xmlns="http://www.w3.org/2000/svg" xmlns:xlink="http://www.w3.org/1999/xlink" x="0px" y="0px"
	 width="32px" height="32px" viewBox="0 0 32 32" style="enable-background:new 0 0 32 32;" xml:space="preserve">
<style type="text/css">
	.avocado_een{fill:#231F20;}
	.avocado_zeventien{fill:#CC4121;}
	.avocado_zes{fill:#FFFAEE;}
	.avocado_vier{fill:#AF9480;}
	.st0{fill:#EAD13F;}
	.st1{fill:#E0A838;}
	.st2{fill:#D1712A;}
	.st3{fill:#A3AEB5;}
	.st4{fill:#788287;}
	.st5{fill:#C3CC6A;}
	.st6{fill:#6F9B45;}
	.st7{fill:#248EBC;}
	.st8{fill:#8D3E93;}
	.st9{fill:#3D3935;}
	.st10{fill:#D36781;}
	.st11{fill:#E598A3;}
	.st12{fill:#716558;}
	.st13{fill:#DBD2C1;}
	.st14{fill:#231F20;}
</style>
<g>
	<rect x="6.5" y="21.5" class="avocado_zes" width="17" height="10"/>
	<path class="avocado_zeventien" d="M7,25.5H6.5v6h17v-5H23c-0.827,0-1.5,0.673-1.5,1.5s-0.673,1.5-1.5,1.5h-1
		c-0.827,0-1.5-0.673-1.5-1.5s-0.673-1.5-1.5-1.5s-1.5-0.673-1.5-1.5s-0.673-1.5-1.5-1.5s-1.5,0.673-1.5,1.5v3
		c0,0.827-0.673,1.5-1.5,1.5S8.5,28.827,8.5,28v-1C8.5,26.173,7.827,25.5,7,25.5z"/>
	<path class="avocado_vier" d="M5.5,21.5h19V19c0-1.378-1.122-2.5-2.5-2.5h-5.532l0.846-13.537
		c0.04-0.646-0.182-1.261-0.625-1.732c-0.886-0.942-2.493-0.942-3.379,0c-0.443,0.471-0.665,1.086-0.625,1.732L13.532,16.5H8
		c-1.378,0-2.5,1.122-2.5,2.5V21.5z"/>
	<path class="avocado_een" d="M25,19c0-1.657-1.343-3-3-3h-5l0.813-13.006C17.914,1.372,16.626,0,15,0
		s-2.914,1.372-2.813,2.994L13,16H8c-1.657,0-3,1.343-3,3v3h1v10l18,0V22h1V19z M10,30c1.103,0,2-0.897,2-2v-3c0-0.551,0.449-1,1-1
		c0.552,0,1,0.449,1,1c0,1.103,0.897,2,2,2c0.551,0,1,0.449,1,1c0,1.103,0.897,2,2,2h1c1.103,0,2-0.897,2-2c0-0.551,0.449-1,1-1v4H7
		v-5c0.551,0,1,0.449,1,1v1C8,29.103,8.897,30,10,30z M23,26c-1.105,0-2,0.895-2,2c0,0.552-0.448,1-1,1h-1c-0.552,0-1-0.396-1-1
		c0-1.085-0.917-2-2-2c-0.552,0-1-0.448-1-1c0-1.105-0.896-2-2-2s-2,0.895-2,2v3c0,0.552-0.448,1-1,1s-1-0.448-1-1v-1
		c0-1.104-0.895-2-2-2v-3h16V26z M24,21H6v-2c0-1.103,0.897-2,2-2h6.064L13.185,2.932c-0.032-0.506,0.142-0.989,0.49-1.358
		C14.022,1.204,14.493,1,15,1s0.978,0.204,1.325,0.573c0.347,0.37,0.521,0.852,0.49,1.358L15.936,17H22c1.103,0,2,0.897,2,2V21z
		 M16,3c0,0.552-0.448,1-1,1s-1-0.448-1-1c0-0.552,0.448-1,1-1S16,2.448,16,3z"/>
</g>
</svg>